<svg width="104" height="102" viewBox="0 0 104 102" fill="none" xmlns="http://www.w3.org/2000/svg">
<path d="M101.25 2.1C99.5833 0.7 97.45 0 94.85 0C89.85 0 84.6667 1.73333 79.3 5.2C73.9 8.7 67.5833 14.4167 60.35 22.35C58.4833 15.25 55.1167 9.83333 50.25 6.1C45.35 2.36667 39.1833 0.5 31.75 0.5C22.6833 0.5 15.2167 3.1 9.35 8.3C3.45 13.4333 0.5 19.9833 0.5 27.95C0.5 34.1833 2.5 39.3333 6.5 43.4C10.4667 47.4333 15.5 49.45 21.6 49.45C23.9 49.45 25.95 49.25 27.75 48.85L25.3 57.75C26.9333 58.8833 30.0167 59.45 34.55 59.45C37.0167 59.45 39.4167 59.35 41.75 59.15L52.05 58.35C61.2167 57.6167 67.5 57.25 70.9 57.25C78.7 57.25 82.6 60.0167 82.6 65.55C82.6 69.05 81.4833 72.1833 79.25 74.95C77.0167 77.75 74.4833 79.15 71.65 79.15C67.1833 79.15 63.2167 76.7667 59.75 72L57.7 69.1C57.6667 69.0333 57.55 68.8667 57.35 68.6L57.9 67.75C58.8333 66.45 59.6667 65.2333 60.4 64.1C61.9333 61.7333 62.9667 60.2 63.5 59.5L63 59.6C61.9 59.7333 61.2 59.8 60.9 59.8L59 59.85C58.9667 59.85 58.7167 59.8667 58.25 59.9C58.5833 60.3333 58.75 60.7667 58.75 61.2C58.75 62.1667 58.3 63.3833 57.4 64.85L56.15 67.05C53.9167 64.3833 51.4333 63.05 48.7 63.05C45.5333 63.05 42.7667 64.4667 40.4 67.3C38 70.1667 36.8 73.5167 36.8 77.35C36.8 81.8833 38.2667 85.9667 41.2 89.6L33.85 100.7L34.9 101.45C36.7 98.6833 38.4833 96.7333 40.25 95.6C42.05 94.4333 44.2167 93.85 46.75 93.85C49.15 93.85 51.65 94.25 54.25 95.05C56.85 95.8167 60.4833 97.2667 65.15 99.4C68.5167 100.933 71.3167 101.983 73.55 102.55C73.85 102.15 74.0167 101.9 74.05 101.8L78.7 94.9C78.7333 94.8333 78.8667 94.6333 79.1 94.3L78 93.6C76.1667 96.2333 74.6 97.55 73.3 97.55C72.6 97.55 71.2667 97.15 69.3 96.35L62.5 93.55C57.4333 91.45 53.4 90.4 50.4 90.4C47.1 90.4 43.6 91.7 39.9 94.3L54.4 72.8L54.95 73.55C57.3167 76.4833 59.4667 78.5333 61.4 79.7C63.3667 80.8333 65.6833 81.4 68.35 81.4C73.7167 81.4 78.15 79.2167 81.65 74.85C84.6167 71.1833 86.1 67.3 86.1 63.2C86.1 56.3 81.0667 52.85 71 52.85C67.5667 52.85 61.55 53.2 52.95 53.9C45.3167 54.5333 39.55 54.85 35.65 54.85C33.0833 54.85 31.2833 54.6167 30.25 54.15C29.2167 53.6833 28.7 52.8667 28.7 51.7C28.7 51.0667 28.8667 50.05 29.2 48.65L29.25 48.4C29.2833 48.3667 29.3167 48.35 29.35 48.35L29.3 48.15V48.05H29.25L29.15 47.7C28.8833 47.7333 28.6167 47.7833 28.35 47.85L28.05 47.75V47.85C27.2167 47.95 26.4667 48 25.8 48C19.5667 48 14.3667 45.8833 10.2 41.65C6.06667 37.3833 4 32.0667 4 25.7C4 18.9 6.33333 13.35 11 9.05C15.7 4.71667 21.75 2.55 29.15 2.55C35.5833 2.55 41.1833 4.31667 45.95 7.85C50.7167 11.3167 54.1167 16.15 56.15 22.35C53.6833 22.6833 51.35 23.8 49.15 25.7C46.95 27.6 45.85 29.45 45.85 31.25C45.85 32.0167 46.15 32.6667 46.75 33.2C47.0833 27.8667 50.45 25.2 56.85 25.2L57 25.95L56.65 26.3C52.9833 30.5333 50.1 33.9833 48 36.65C44.9667 40.45 42.9 42.9667 41.8 44.2C41.8 31.0333 41.1 20.7167 39.7 13.25L38.9 13.75C37.3333 14.75 36.1667 15.4667 35.4 15.9L31.65 18C31.5833 18 31.4 18.1167 31.1 18.35L31.7 19.5C32.9 18.8667 33.7667 18.55 34.3 18.55C35.1667 18.55 35.75 19.05 36.05 20.05C36.3833 21.0167 36.7 23.4 37 27.2C37.7667 36.2333 38.15 44.2167 38.15 51.15L47.65 39.2C48.6833 37.9 50.45 35.7667 52.95 32.8C54.5167 30.9667 55.5833 29.7167 56.15 29.05L57.3 27.65L57.4 28.35C58.3333 34.8167 58.8 41.4167 58.8 48.15L58.75 51.55C62.85 47.8167 67.2 43.3667 71.8 38.2C76.3667 33.0333 79.8167 28.7 82.15 25.2C88.45 24 93.6333 21.75 97.7 18.45C101.733 15.1167 103.75 11.4833 103.75 7.55C103.75 5.35 102.917 3.53333 101.25 2.1ZM94.5 19C92.2333 20.6 88.65 21.8333 83.75 22.7C85.45 20 86.5667 17.45 87.1 15.05H78V16.35L78.75 16.4C80.9167 16.5 82 17.1667 82 18.4C82 19.6667 81.5 21.2 80.5 23L76.6 23.1C72.5 23.1 67.6833 22.8667 62.15 22.4C73.7833 9.33333 83.7833 2.8 92.15 2.8C94.5167 2.8 96.4167 3.4 97.85 4.6C99.2833 5.83333 100 7.43333 100 9.4C100 13.2 98.1667 16.4 94.5 19ZM61.75 25.3C66.45 25.6667 69.9667 25.85 72.3 25.85C74.6 25.85 76.9167 25.7667 79.25 25.6C77.5833 28.5 75.1833 31.8667 72.05 35.7C68.9167 39.5 65.8 42.85 62.7 45.75V44.5C62.7 36.5333 62.1 30.1 60.9 25.2L61.75 25.3ZM46.2 66.3C47.4333 66.3 48.6 66.7 49.7 67.5C50.7667 68.2667 51.9667 69.55 53.3 71.35L43.9 85.5C40.6333 81.6333 39 78.0333 39 74.7C39 72.2667 39.7 70.2667 41.1 68.7C42.4333 67.1 44.1333 66.3 46.2 66.3Z" fill="#FFD966"/>
</svg>
